<?xml version="1.0" encoding="utf-8"?>
<!-- Generator: Adobe Illustrator 26.5.0, SVG Export Plug-In . SVG Version: 6.00 Build 0)  -->
<svg version="1.1" id="Слой_1" xmlns="http://www.w3.org/2000/svg" xmlns:xlink="http://www.w3.org/1999/xlink" x="0px" y="0px"
	 viewBox="0 0 48.435 48.436" style="enable-background:new 0 0 48.435 48.436;" xml:space="preserve">
<style type="text/css">
	.st0{fill:#C4161C;}
</style>
<path class="st0" d="M34.091,24.218c0,5.453-4.42,9.873-9.873,9.873s-9.873-4.42-9.873-9.873s4.42-9.873,9.873-9.873
	S34.091,18.765,34.091,24.218z M48.128,23.478L39.64,14.99c-0.52-0.501-2.185,0.087-1.41,1.41c1.294,2.314,2.039,4.978,2.039,7.818
	s-0.745,5.504-2.039,7.818c-0.714,1.267,0.837,1.947,1.41,1.411l8.488-8.489C48.537,24.549,48.537,23.886,48.128,23.478z
	 M23.477,0.307l-8.488,8.488c-0.501,0.52,0.087,2.185,1.41,1.41c2.314-1.294,4.978-2.039,7.818-2.039s5.504,0.745,7.818,2.039
	c1.267,0.714,1.947-0.837,1.411-1.41l-8.489-8.488C24.549-0.102,23.886-0.102,23.477,0.307z M0.306,24.958l8.488,8.488
	c0.52,0.501,2.185-0.087,1.41-1.41c-1.294-2.314-2.039-4.978-2.039-7.818s0.745-5.504,2.039-7.818
	c0.714-1.267-0.837-1.947-1.41-1.411l-8.488,8.489C-0.102,23.886-0.102,24.549,0.306,24.958z M24.958,48.129l8.488-8.488
	c0.501-0.52-0.087-2.185-1.41-1.41c-2.314,1.294-4.978,2.039-7.818,2.039s-5..504-0.745-7.818-2.039
	c-1.267-0.714-1.947,0.837-1.411,1.41l8.489,8.488C23.886,48.538,24.549,48.538,24.958,48.129z"/>
</svg>
